# xmcd
#
# Track frame offsets: 
#        182
#        12425
#        23237
#        36252
#        47762
#        59547
#        71382
#        82392
#        94777
#        106467
#        118685
#        131147
#        143102
#        155885
#        169585
#        179715
#        189875
#        198955
#        205282
#        216022
#        226070
#        236815
#        248110
#        259162
#        271342
#        279442
#        289715
#        304222
#        314920
#        322932
#
# Disc length: 4472 seconds
#
# Revision: 9
# Processed by: cddbd v1.5.2PL0 Copyright (c) Steve Scherf et al.
# Submitted via: ExactAudioCopy v1.3
#
DISCID=ca11761e
DTITLE=Hank Williams - The Original Singles Collection Plus Disc 3
DYEAR=1990
DGENRE=Country
TTITLE0=Half As Much
TTITLE1=Let's Turn Back The Years
TTITLE2=Jambalaya (On The Bayou)
TTITLE3=Window Shopping
TTITLE4=Settin' The Woods On Fire
TTITLE5=You Win Again
TTITLE6=I'll Never Get Out Of This World Alive
TTITLE7=I Could Never Be Ashamed Of You
TTITLE8=Kaw-Liga
TTITLE9=Your Cheatin' Heart
TTITLE10=I Won't Be Home No More
TTITLE11=Take These Chains From My Heart
TTITLE12=Please Make Up Your Mind
TTITLE13=Ramblin' Man
TTITLE14=House Of Gold
TTITLE15=With Tears In My Eyes
TTITLE16=Alone And Forsaken
TTITLE17=Fool About You
TTITLE18=I'm Free At Last
TTITLE19=Someday You'll Call My Name
TTITLE20=I Can't Escape From You
TTITLE21=Something Got A Hold Of Me
TTITLE22=Weary Blues From Waitin'
TTITLE23=I Ain't Got Nothin' But Time
TTITLE24=Angel Of Death
TTITLE25=There's No Room In My Heart For The Blues
TTITLE26=At The First Fall Of Snow
TTITLE27=The Log Train
TTITLE28=All The Love I Ever Had
TTITLE29=There's A Tear In My Beer
EXTD=3CD: PolyGram/Mercury Nashville 847 194-2 (1991-07-01), UPC 04228
EXTD=4719421.
EXTT0=(Curley Williams)
EXTT1=(Hank Williams)
EXTT2=(Hank Williams)
EXTT3=(Marcel Joseph)
EXTT4=(Fred Rose/Ed G. Nelson)
EXTT5=(Hank Williams)
EXTT6=(Hank Williams/Fred Rose)
EXTT7=(Hank Williams)
EXTT8=(Hank Williams/Fred Rose)
EXTT9=(Hank Williams)
EXTT10=(Hank Williams)
EXTT11=(Hy Heath/Fred Rose)
EXTT12=(Hank Williams)
EXTT13=(Hank Williams)
EXTT14=(Hank Williams)
EXTT15=(Paul Howard)
EXTT16=(Hank Williams)
EXTT17=(Ralph C. Hutcherson)
EXTT18=(Lewis G. Candys)
EXTT19=(Eddie Hill/Jean Branch)
EXTT20=(Hank Williams)
EXTT21=(A.P. Carter)
EXTT22=(Hank Williams)
EXTT23=(Hank Williams)
EXTT24=(Hank Williams)
EXTT25=(Fred Rose/Zeb Turner)
EXTT26=(Lorene Rose)
EXTT27=(Hank Williams)
EXTT28=(Hank Williams)
EXTT29=(Hank Williams)
PLAYORDER=
